PathFileType	3	(X/Y/Z)	E:\ViconData\BIOM9541 2025\Week 7\Wed1100\Hanif high squat 7-5 Squat 01.trc
DataRate	CameraRate	NumFrames	NumMarkers	Units	OrigDataRate	OrigDataStartFrame	OrigNumFrames
200.0	200.0	16	19	mm	200.0	1537	1756	
Frame#	Time	C7			CLAV			RBAK			LASI			RASI			LPSI			RPSI			LTHI			LKNE			LTIB			LANK			LHEE			LTOE			RTHI			RKNE			RTIB			RANK			RHEE			RTOE			
		X1	Y1	Z1	X2	Y2	Z2	X3	Y3	Z3	X4	Y4	Z4	X5	Y5	Z5	X6	Y6	Z6	X7	Y7	Z7	X8	Y8	Z8	X9	Y9	Z9	X10	Y10	Z10	X11	Y11	Z11	X12	Y12	Z12	X13	Y13	Z13	X14	Y14	Z14	X15	Y15	Z15	X16	Y16	Z16	X17	Y17	Z17	X18	Y18	Z18	X19	Y19	Z19	
1537	7.68	307.34317	1076.8344	-1217.7185	168.83919	988.68939	-1204.0964	327.33688	998.27881	-1370.6494	264.80978	634.65002	-1092.5269	250.713	654.2341	-1354.2148	428.6488	701.3748	-1181.8878	426.5068	698.681	-1256.0303	174.90547	469.37598	-933.01251	95.689323	360.33719	-893.92487	208.81061	188.29454	-922.16089	299.40933	65.882927	-980.04614	320.10205	53.729305	-1038.3733	159.85284	38.842514	-949.14508	277.48666	571.89337	-1442.4684	98.509254	343.97107	-1532.5046	137.03641	268.59671	-1527.3065	289.50592	69.940369	-1433.8326	315.72159	52.620831	-1363.4957	161.0717	39.911068	-1463.0188	
1538	7.685	307.52655	1080.8438	-1217.644	168.92766	992.8028	-1204.0831	327.54947	1002.2851	-1370.6322	264.38147	638.47632	-1092.5242	250.3883	658.0496	-1354.2028	428.2589	705.21	-1181.9552	426.172	702.7271	-1255.9624	175.32455	471.04385	-933.25897	96.652382	361.18344	-894.57294	209.34148	188.79655	-922.31195	299.46851	65.823021	-980.00153	320.20175	53.651646	-1038.2784	159.8334	38.777451	-949.08063	277.3855	574.56653	-1442.3795	99.818298	345.0802	-1532.1057	138.23138	269.52844	-1527.0062	289.64725	69.89856	-1433.8496	315.82233	52.499279	-1363.7041	161.12216	39.893856	-1463.1171	
1539	7.69	307.71115	1084.8873	-1217.5862	169.04132	997.02478	-1204.0469	327.73492	1006.3264	-1370.5775	263.95905	642.41272	-1092.6057	250.0585	661.9012	-1354.1552	427.8758	709.0715	-1182.1381	425.8839	706.8496	-1255.9746	175.73607	472.7099	-933.47144	97.654587	362.18582	-895.17883	209.81374	189.23401	-922.55652	299.5658	65.772987	-979.99316	321.11334	54.193741	-1038.7446	159.87555	38.72702	-949.09009	277.17987	577.41962	-1442.4249	101.19312	346.14694	-1531.6842	139.40408	270.44934	-1526.6677	289.76199	69.880882	-1433.8557	315.89957	52.415791	-1363.8584	161.16797	39.854958	-1463.1576	
1540	7.695	307.84744	1088.9573	-1217.5577	169.16216	1001.3594	-1204.0938	327.8212	1010.401	-1370.4142	263.52145	646.37366	-1092.6105	249.6714	665.8566	-1354.1024	427.4334	713.0635	-1182.2334	425.4598	710.8698	-1255.8409	176.33293	474.91196	-933.47003	98.723892	363.17328	-895.80798	210.30272	189.68045	-922.79333	296.17993	66.593788	-972.46967	321.13342	54.198471	-1038.7437	159.85936	38.735432	-949.03101	277.02151	580.21881	-1442.3616	102.58768	347.33801	-1531.2615	140.60255	271.47217	-1526.2855	289.85001	69.894318	-1433.8856	315.97836	52.327877	-1364.0007	161.1799	39.884605	-1463.2527	
1541	7.7	308.00153	1093.0974	-1217.4459	169.21274	1005.6409	-1204.0092	328.01245	1014.6292	-1370.3871	263.09564	650.32312	-1092.6481	249.3229	669.848	-1354.1246	426.9772	717.1051	-1182.0643	425.0169	715.0252	-1255.7384	176.78188	476.51328	-933.78522	99.745903	364.13602	-896.43616	210.86075	190.11076	-923.04773	299.63501	65.833542	-979.88989	321.15424	54.215061	-1038.665	159.84534	38.764412	-948.94562	276.76685	583.30261	-1442.4749	103.94588	348.6347	-1530.7888	141.77686	272.5712	-1525.8971	289.94989	69.978676	-1433.9097	316.02747	52.275047	-1364.0757	161.18654	39.984604	-1463.3599	
1542	7.705	308.14676	1097.2637	-1217.3925	169.32469	1009.9219	-1203.9253	328.12335	1018.7086	-1370.3219	262.58466	654.34381	-1092.5884	248.9446	673.9289	-1354.1342	426.4163	721.1847	-1181.7455	424.4965	718.9509	-1255.6163	177.02246	477.70639	-934.2301	100.78093	365.07648	-897.10474	211.39458	190.5882	-923.31219	297.11035	66.503685	-972.64044	321.19006	54.271095	-1038.5822	159.83377	38.777927	-948.85052	276.56744	586.23706	-1442.3831	105.36525	349.88538	-1530.2638	143.05733	273.66211	-1525.5455	290.04184	70.093895	-1433.9347	316.07153	52.229851	-1364.1332	161.21861	40.099972	-1463.4619	
1543	7.71	308.32709	1101.4203	-1217.4034	169.44466	1014.241	-1203.9868	328.25555	1022.8817	-1370.1792	262.09024	658.39062	-1092.6636	248.5272	677.9979	-1354.0944	425.9153	725.2529	-1181.5236	423.9665	722.8071	-1255.4907	177.44757	479.4024	-934.47015	101.81011	366.02527	-897.87628	211.85127	190.95409	-923.56439	297.08017	66.808876	-972.17584	321.28021	54.270664	-1038.5021	159.84991	38.761696	-948.81213	276.40875	589.19293	-1442.3982	106.85766	351.11478	-1529.7197	144.37105	274.72241	-1525.1304	290.19492	70.108902	-1433.9396	316.45889	52.468674	-1364.3279	161.26997	40.111141	-1463.5598	
1544	7.715	308.49304	1105.6105	-1217.3354	169.58119	1018.5983	-1203.9987	328.45413	1027.057	-1370.0726	261.53412	662.49506	-1092.6266	248.169	681.9992	-1354.0042	425.3948	729.3084	-1181.422	423.5377	726.9374	-1255.4028	177.83586	481.14273	-934.65845	102.92861	366.99838	-898.66516	212.39751	191.46999	-923.80981	297.13693	66.839111	-972.17096	321.3945	54.265991	-1038.4678	159.85814	38.728344	-948.81488	276.1781	592.09955	-1442.2389	108.33609	352.30307	-1529.1722	145.68918	275.75208	-1524.6744	290.32291	70.083229	-1433.9362	316.14951	52.17461	-1364.0009	161.30977	40.110893	-1463.6599	
1545	7.72	308.63757	1109.8339	-1217.2625	169.66742	1022.8718	-1203.9557	328.60748	1031.2716	-1369.9866	260.96179	666.61798	-1092.4539	247.769	686.0652	-1353.9796	424.8538	733.4776	-1181.3667	423.023	731.2098	-1255.2399	178.27747	482.84503	-935.03406	103.98146	368.02856	-899.37347	212.97298	192.02341	-924.1272	297.06699	67.003021	-971.84442	321.45428	54.230461	-1038.4022	159.85901	38.673782	-948.76013	275.94998	595.09698	-1442.2557	109.86282	353.48297	-1528.5939	146.99988	276.71191	-1524.2191	290.44775	70.06282	-1433.9506	316.21512	52.114052	-1364.0536	161.35712	40.082607	-1463.7095	
1546	7.725	308.75989	1114.047	-1217.2084	169.72278	1027.3252	-1203.897	328.78287	1035.5369	-1369.9053	260.3765	670.76825	-1092.426	247.3275	690.2092	-1353.9209	424.2991	737.6421	-1181.3457	422.5127	735.3384	-1255.1335	178.71645	484.51062	-935.37439	105.13075	369.10818	-900.12592	213.54543	192.47003	-924.43976	297.12976	66.983147	-971.84753	321.56931	54.200642	-1038.2654	159.81505	38.66898	-948.71875	275.73337	598.06506	-1442.1093	111.38843	354.73206	-1527.9712	148.27016	277.79575	-1523.7098	290.52496	70.146576	-1433.9264	316.26486	52.094795	-1364.0836	161.35582	40.118809	-1463.788	
1547	7.73	308.88699	1118.3627	-1217.0293	169.77191	1031.8213	-1203.8866	328.83221	1039.7998	-1369.7583	259.75641	674.87421	-1092.4088	246.7648	694.494	-1353.9236	423.6708	741.7722	-1180.9911	421.9049	739.4522	-1254.9637	179.1794	486.26559	-935.70441	106.30586	370.02991	-901.06158	214.20584	192.99176	-924.72394	297.1666	66.94207	-971.83313	320.95041	53.576176	-1037.7546	159.79005	38.67168	-948.59808	275.17599	601.51068	-1442.6802	112.8912	356.04248	-1527.2657	149.6059	278.95428	-1523.1702	290.61588	70.227989	-1433.9669	316.30978	52.073666	-1364.1259	161.33444	40.167355	-1463.8293	
1548	7.735	308.99509	1122.6444	-1216.9359	169.79015	1036.264	-1203.8004	328.94025	1044.0557	-1369.6195	259.11334	679.08069	-1092.3413	246.2759	698.6818	-1353.8905	423.0778	745.9412	-1180.8154	421.3772	743.6915	-1254.8362	179.65475	487.97327	-936.10004	107.48312	371.07056	-901.97095	214.78142	193.47647	-925.06958	297.21176	66.928345	-971.85065	321.03384	53.561672	-1037.6627	159.77762	38.681084	-948.54163	274.9202	604.57544	-1442.5886	114.4952	357.34747	-1526.5741	150.95645	280.07385	-1522.6255	290.77206	70.327286	-1433.9957	316.41458	51.969887	-1364.3291	161.33043	40.23011	-1463.9176	
1549	7.74	309.20193	1127.0006	-1216.9479	169.90375	1040.7338	-1203.7131	329.11871	1048.3716	-1369.521	258.45001	683.36816	-1092.2822	245.8555	702.8399	-1353.8174	422.465	750.1154	-1180.7477	420.8094	747.9714	-1254.691	180.05397	489.70789	-936.44391	108.68246	372.125	-902.82001	215.46307	194.08424	-925.34308	297.18219	67.273468	-971.39764	321.10089	53.449688	-1037.5276	159.78212	38.641598	-948.52478	274.67203	607.54938	-1442.4436	116.1414	358.61475	-1525.9053	152.41637	281.15479	-1522.114	290.92288	70.29425	-1434.0302	316.51044	51.901184	-1364.4418	161.37912	40.221127	-1463.9828	
1550	7.745	309.35422	1131.2909	-1216.8175	169.96498	1045.2888	-1203.7716	329.26398	1052.5747	-1369.4462	257.7179	687.62177	-1092.1959	245.3393	707.0299	-1353.7651	421.8603	754.3018	-1180.8701	420.251	752.1763	-1254.6003	180.48987	491.56451	-936.76538	109.86991	373.24969	-903.60034	216.11403	194.65834	-925.64667	297.24338	65.179482	-974.81567	321.18619	53.342327	-1037.431	159.80376	38.60812	-948.52588	274.43378	610.58569	-1442.3868	117.81588	359.82968	-1525.2264	153.92067	282.23987	-1521.6123	291.09302	70.314346	-1434.0624	316.60916	51.856453	-1364.5111	161.42995	40.18996	-1464.0846	
1551	7.75	309.51505	1135.5974	-1216.7941	170.05873	1049.6776	-1203.683	329.38788	1056.8517	-1369.3251	257.04581	691.80804	-1092.1337	244.821	711.2461	-1353.7128	421.2096	758.4766	-1180.625	419.6354	756.3903	-1254.4329	181.31502	493.59216	-937.36102	111.15587	374.25546	-904.52045	216.77942	195.20818	-925.91064	297.27603	65.14653	-974.66632	321.24841	53.316837	-1037.3531	159.84753	38.592739	-948.50555	274.2005	613.59509	-1442.304	119.45749	361.12347	-1524.464	155.34816	283.36252	-1521.0303	291.22989	70.337715	-1434.0906	316.67603	51.78883	-1364.5754	161.45094	40.23761	-1464.2136	
1552	7.755	309.66013	1139.8729	-1216.7484	170.16179	1054.2108	-1203.5442	329.44937	1061.0034	-1369.2238	256.36029	696.05511	-1092.1217	244.2803	715.489	-1353.6604	420.4631	762.7484	-1180.1614	418.8996	760.4689	-1254.2264	181.79752	495.24704	-937.75256	112.48427	375.26385	-905.44763	217.50063	195.71265	-926.24219	296.88107	66.328102	-972.59344	321.3063	53.386078	-1037.2744	159.83249	38.623093	-948.43585	273.95395	616.62231	-1442.145	121.14219	362.49875	-1523.6725	156.83719	284.57706	-1520.4271	291.3381	70.471054	-1434.0771	316.7131	51.755386	-1364.6191	161.48126	40.335293	-1464.2963	
